<svg xmlns="http://www.w3.org/2000/svg" width="20" height="23" viewBox="0 0 20 23" fill="none"><g clip-path="url(#clip0_240_52527)"><path d="M18.523 17.0083C18.2415 17.186 17.9652 17.1494 17.6888 16.9821C17.0632 16.6162 16.4323 16.2555 15.8067 15.8895C15.7389 15.8529 15.6764 15.8163 15.5825 15.764C15.5825 15.8581 15.5721 15.9313 15.5721 16.0045C15.5617 16.6528 15.5565 17.3063 15.5408 17.9598C15.5304 18.3466 15.2906 18.6289 14.936 18.6969C14.6076 18.7596 14.253 18.5714 14.1331 18.2473C14.0862 18.1114 14.0706 17.9598 14.0706 17.8134C14.0706 16.8985 14.0862 15.9888 14.0966 15.074C14.0966 14.9746 14.0966 14.8962 13.9819 14.8282C12.7359 14.112 11.495 13.3906 10.249 12.6691C10.2229 12.6534 10.202 12.6482 10.1395 12.6221V12.8416C10.1395 14.2218 10.1395 15.602 10.1395 16.9821C10.1395 17.1337 10.1864 17.2226 10.3219 17.2958C11.1353 17.7506 11.9434 18.2055 12.7515 18.6708C13.2051 18.9321 13.3094 19.4393 12.9965 19.8209C12.7619 20.1032 12.3813 20.1607 12.0216 19.9568C11.4689 19.6484 10.9163 19.3347 10.3637 19.021C10.3063 18.9897 10.2437 18.9583 10.1447 18.906V19.1622C10.1447 19.8575 10.129 20.5476 10.1447 21.2429C10.1551 21.6977 10.0039 22.0271 9.57118 22.1944H9.23229C8.79956 22.0271 8.64836 21.6977 8.65879 21.2429C8.67964 20.5528 8.65879 19.8575 8.65879 19.1622V18.9008C8.22605 19.1465 7.8246 19.3713 7.42836 19.5961C7.21982 19.7163 7.01127 19.8366 6.80272 19.9516C6.36999 20.1868 5.93726 20.0875 5.7235 19.7059C5.51495 19.3347 5.65572 18.906 6.07281 18.6655C6.88093 18.2055 7.68905 17.7454 8.49716 17.2854C8.59622 17.2278 8.65879 17.1808 8.65879 17.0449C8.65357 15.6072 8.65879 14.1695 8.65879 12.7319C8.65879 12.7057 8.65357 12.6796 8.64315 12.6273C8.57537 12.6587 8.52323 12.6796 8.4711 12.7109C7.26153 13.4115 6.05717 14.112 4.8476 14.8073C4.73812 14.8701 4.69641 14.9433 4.69641 15.074C4.71205 15.9 4.71205 16.7312 4.72248 17.5572C4.72248 17.6618 4.72248 17.7716 4.72248 17.8761C4.72248 18.3728 4.42008 18.7073 3.98214 18.7073C3.54419 18.7073 3.25222 18.3832 3.24701 17.897C3.2418 17.1965 3.24701 16.4959 3.24701 15.7431C3.13231 15.8059 3.06975 15.8372 3.00197 15.879C2.36069 16.2502 1.72462 16.6266 1.08334 16.9926C0.59326 17.2697 0.0666805 17.0606 -0.0584473 16.5534C-0.141866 16.2189 0.00933024 15.9052 0.353432 15.7065C0.994711 15.3353 1.63599 14.9642 2.27206 14.593C2.32941 14.5564 2.39197 14.5198 2.47018 14.4727C2.39197 14.4205 2.32941 14.3786 2.26684 14.342C1.70898 14.0127 1.15112 13.6833 0.59326 13.3487C0.306509 13.1762 0.16574 12.8678 0.233517 12.575C0.306509 12.2561 0.499414 12.0209 0.822661 11.9895C1.01557 11.9686 1.24497 12.0313 1.41702 12.1254C2.22513 12.5802 3.02282 13.0664 3.82573 13.5369C3.88829 13.5735 4.0082 13.5892 4.06556 13.5526C5.31162 12.8364 6.55768 12.115 7.79853 11.3935C7.8246 11.3778 7.85067 11.3569 7.89238 11.3255C7.8246 11.2785 7.77246 11.2471 7.72033 11.2158C6.52119 10.5204 5.31683 9.82514 4.11769 9.1246C3.99778 9.05663 3.91436 9.05141 3.79444 9.1246C3.00197 9.60034 2.20949 10.0708 1.4118 10.5414C1.04685 10.7557 0.718387 10.74 0.457705 10.4995C0.0875351 10.1597 0.144885 9.58465 0.598473 9.30757C1.14591 8.97299 1.69855 8.65409 2.2512 8.32473C2.31898 8.28813 2.38154 8.24631 2.47018 8.1888C2.39718 8.14175 2.34505 8.09993 2.2877 8.06856C1.6412 7.69215 0.994711 7.32097 0.348218 6.94456C0.00933027 6.7459 -0.136652 6.43745 -0.0636609 6.11332C0.0562532 5.60099 0.582832 5.37619 1.0677 5.64804C1.70898 6.01399 2.35026 6.3904 2.99154 6.76158C3.05932 6.79818 3.12188 6.83478 3.21573 6.88183C3.21573 6.78772 3.22616 6.71453 3.22616 6.64134C3.23658 5.96694 3.23658 5.29777 3.26265 4.62337C3.27308 4.26265 3.55462 3.98557 3.90393 3.94897C4.24282 3.90715 4.58171 4.11626 4.67555 4.44562C4.71726 4.57632 4.72248 4.7227 4.72248 4.86386C4.72248 5.76828 4.70683 6.67794 4.69641 7.58237C4.69641 7.69738 4.72248 7.77057 4.83196 7.83331C6.06239 8.53907 7.28238 9.25529 8.50759 9.96629C8.54409 9.9872 8.58058 10.0029 8.64315 10.029C8.64315 9.94015 8.65357 9.87741 8.65357 9.80945C8.65357 8.42929 8.65357 7.04912 8.65357 5.66895C8.65357 5.51212 8.60665 5.42847 8.4711 5.35528C7.66298 4.90568 6.86007 4.45085 6.06239 3.9908C5.71307 3.79214 5.56187 3.47846 5.64008 3.1491C5.75999 2.65245 6.27614 2.42242 6.74016 2.67859C7.30324 2.98704 7.85588 3.31117 8.41374 3.62484C8.48152 3.66144 8.5493 3.69803 8.64836 3.75031V3.49414C8.64836 2.79883 8.664 2.10875 8.64836 1.41344C8.63793 0.958611 8.78913 0.629253 9.22186 0.46196H9.56075C9.99348 0.629253 10.1447 0.958611 10.1343 1.41344C10.1134 2.10352 10.1343 2.79883 10.1343 3.49414V3.75554C10.5774 3.5046 10.9789 3.2798 11.3803 3.04977C11.5784 2.93999 11.7713 2.82497 11.9695 2.71519C12.4178 2.46425 12.8558 2.55835 13.0695 2.95044C13.2781 3.33731 13.1373 3.75554 12.7046 4.00125C11.9173 4.45085 11.1248 4.90568 10.3324 5.34482C10.1864 5.42847 10.129 5.51734 10.129 5.68986C10.1343 7.05435 10.129 8.42406 10.129 9.78854V10.029C10.2072 9.99243 10.2594 9.97152 10.3115 9.94015C11.5211 9.23961 12.7254 8.53907 13.935 7.84376C14.0445 7.78103 14.0914 7.71306 14.0862 7.58237C14.0706 6.72499 14.0653 5.86761 14.0601 5.01024C14.0601 4.9475 14.0601 4.88477 14.0601 4.82203C14.0601 4.29401 14.3469 3.94374 14.7953 3.94374C15.2384 3.94374 15.5304 4.2731 15.5356 4.79589C15.5356 5.48075 15.5356 6.17083 15.5356 6.90797C15.6451 6.84523 15.7129 6.81386 15.7754 6.77727C16.4219 6.40086 17.0632 6.01922 17.7149 5.65327C18.1946 5.38142 18.7264 5.60622 18.8463 6.11855C18.9193 6.44268 18.7733 6.75113 18.4344 6.94979C17.7983 7.3262 17.157 7.69215 16.5158 8.06333C16.4532 8.09993 16.3959 8.13652 16.3072 8.1888C16.3854 8.24108 16.448 8.28291 16.5106 8.3195C17.0684 8.64886 17.6263 8.97822 18.1841 9.3128C18.4813 9.49055 18.6169 9.80422 18.5491 10.1022C18.4761 10.4159 18.2415 10.6668 17.9287 10.6773C17.7358 10.6825 17.522 10.625 17.3552 10.5257C16.5523 10.0708 15.7598 9.59511 14.9673 9.11937C14.8735 9.06709 14.8057 9.04618 14.7014 9.10891C13.471 9.82514 12.2406 10.5414 11.0101 11.2576C10.9736 11.2785 10.9424 11.3046 10.8902 11.3412C10.9737 11.3935 11.0362 11.4353 11.0988 11.4719C12.2823 12.1568 13.4658 12.8416 14.6441 13.5369C14.79 13.6206 14.8839 13.6101 15.0194 13.5265C15.8119 13.0508 16.6044 12.5802 17.4021 12.115C17.8922 11.8274 18.4292 12.047 18.5491 12.5698C18.6221 12.8887 18.4813 13.1919 18.1529 13.3853C17.6002 13.7199 17.0371 14.0493 16.4793 14.3786C16.4323 14.4048 16.3854 14.4361 16.3124 14.4832C16.3906 14.5303 16.448 14.5721 16.5106 14.6087C17.1623 14.9903 17.8192 15.3615 18.4657 15.7484C18.9766 16.0568 18.9975 16.7207 18.5178 17.024L18.523 17.0083Z" fill="#495057"></path></g><defs><clipPath id="clip0_240_52527"><rect width="18.9464" height="21.7533" fill="white" transform="translate(0.244141 0.446335)"></rect></clipPath></defs></svg>
