<svg width="22" height="23" viewBox="0 0 22 23" fill="none" xmlns="http://www.w3.org/2000/svg">
<g clip-path="url(#clip0_1_6788)">
<path d="M21.448 8.97108C20.9507 8.46736 20.4503 7.96579 19.9444 7.47025C19.838 7.36607 19.7984 7.26059 19.8001 7.11335C19.807 6.40513 19.8075 5.69691 19.8019 4.98869C19.7963 4.23182 19.3889 3.6816 18.6909 3.49605C18.5277 3.45299 18.3516 3.44481 18.1816 3.44309C17.509 3.43749 16.8364 3.43577 16.1638 3.44438C15.9937 3.44654 15.8715 3.40047 15.7505 3.27734C15.2488 2.76716 14.7468 2.25699 14.2262 1.76661C13.4912 1.07432 12.6102 0.677378 11.6104 0.542192C11.5626 0.535734 11.5174 0.514638 11.4708 0.5H10.5683C10.2277 0.576634 9.88026 0.632172 9.54784 0.734638C8.78054 0.970998 8.12691 1.39937 7.56198 1.96767C7.12321 2.40982 6.67669 2.84466 6.24266 3.29155C6.13243 3.40564 6.02004 3.44524 5.86589 3.44395C5.18556 3.43706 4.50481 3.43922 3.82448 3.44137C2.80872 3.44481 2.20719 4.04411 2.20375 5.05585C2.20116 5.75029 2.20848 6.44517 2.19729 7.13961C2.19556 7.24595 2.14174 7.37726 2.06725 7.45346C1.46227 8.07342 0.849549 8.6865 0.231225 9.29354C0.0714775 9.45025 0 9.61945 0 9.84419C0.00387529 13.5248 0.00215294 17.2058 0.00301411 20.8868C0.0034447 21.8951 0.613156 22.5 1.62633 22.5C7.8143 22.5004 14.0027 22.5 20.1907 22.5C21.2689 22.5 21.6374 22.246 22 21.2541V9.5665C21.8161 9.36759 21.6383 9.16352 21.448 8.97108ZM19.8174 8.44196C20.232 8.85397 20.6497 9.26943 21.0501 9.66767C20.6531 10.0663 20.2342 10.487 19.8174 10.9054V8.44196ZM10.5834 1.26117C11.8579 1.15096 12.9495 1.54231 13.8658 2.42834C14.1922 2.74391 14.5112 3.06724 14.8725 3.42544H7.1667C8.11959 2.37581 9.07764 1.39162 10.5834 1.26117ZM2.96158 4.75577C3.01153 4.47205 3.25481 4.23613 3.53943 4.19393C3.64535 4.17843 3.75343 4.17714 3.86065 4.17714C8.62294 4.17628 13.3848 4.17628 18.1467 4.178C18.2819 4.178 18.4223 4.17973 18.551 4.2146C18.8782 4.30329 19.0686 4.59389 19.0694 4.99084C19.072 5.9647 19.0703 6.93855 19.0703 7.91198C19.0703 9.11487 19.0733 10.3178 19.0655 11.5207C19.0651 11.6227 19.0251 11.7519 18.9562 11.8212C17.7975 12.9918 16.631 14.1546 15.4663 15.3188C15.4512 15.3339 15.4335 15.3459 15.3556 15.4096C14.9875 15.0217 14.6451 14.6132 14.2546 14.258C12.2946 12.4734 9.49187 12.5384 7.59513 14.3987C7.26875 14.7191 6.94882 15.0458 6.61554 15.3799C6.56344 15.333 6.52125 15.2981 6.48249 15.2594C5.3479 14.1254 4.21201 12.9931 3.08387 11.853C3.0055 11.7734 2.94909 11.6326 2.94866 11.5202C2.93919 9.37233 2.93919 7.22442 2.93876 5.07609C2.93876 4.96932 2.94306 4.86039 2.96158 4.75577ZM2.18609 8.43378V10.8663C1.79081 10.4715 1.37056 10.0513 0.965807 9.64657C1.34472 9.27029 1.76369 8.85397 2.18609 8.43378ZM0.75482 10.6859C2.48449 12.4162 4.24602 14.1779 5.98689 15.9189C4.27789 17.6273 2.5198 19.3851 0.75482 21.1499V10.6859ZM1.2909 21.7427C1.36755 21.6626 1.4007 21.6265 1.43515 21.5916C3.65741 19.3696 5.87063 17.1382 8.10624 14.9296C9.32868 13.722 10.7841 13.4047 12.4151 13.957C12.9869 14.1503 13.4709 14.4926 13.8963 14.9184C16.119 17.1399 18.3417 19.3619 20.564 21.5838C20.6032 21.623 20.6372 21.6674 20.7026 21.7427H1.2909ZM21.2486 21.124L16.0036 15.8798C17.7251 14.1585 19.4892 12.3942 21.2486 10.6351V21.124Z" fill="#495057"/>
<path d="M5.49528 10.7702C5.4251 10.7702 5.35491 10.7711 5.28516 10.7715C5.35491 10.7711 5.4251 10.7707 5.49528 10.7707C5.6391 10.7702 5.78292 10.7724 5.92673 10.7724C5.78292 10.7724 5.63867 10.7702 5.49528 10.7702ZM15.7954 8.57754C15.8854 8.57496 15.9753 8.5741 16.0653 8.5741C15.9753 8.5741 15.8854 8.57453 15.7954 8.57754ZM16.5045 8.57539C16.3642 8.57582 16.2242 8.5741 16.0839 8.5741C16.2238 8.5741 16.3646 8.57582 16.5045 8.57582C16.6423 8.57539 16.7793 8.5741 16.917 8.5741C16.7793 8.5741 16.6419 8.57539 16.5045 8.57539Z" fill="white"/>
<path d="M17.5981 10.4094C17.5959 10.5932 17.459 10.7409 17.2618 10.7655C17.1912 10.7745 17.1188 10.7706 17.0473 10.7706C16.311 10.7711 15.5747 10.7711 14.838 10.7711C14.1013 10.7711 13.3654 10.7715 12.6286 10.7702C12.5503 10.7702 12.4693 10.7745 12.3944 10.756C12.2252 10.7134 12.121 10.604 12.1137 10.4228C12.1063 10.2329 12.2037 10.1106 12.3815 10.0585C12.4487 10.0387 12.5227 10.04 12.5938 10.04C14.1025 10.0392 15.6113 10.0392 17.1197 10.0396C17.1696 10.0396 17.2204 10.0379 17.2695 10.0452C17.4646 10.0745 17.6002 10.2269 17.5981 10.4094Z" fill="#495057"/>
<path d="M17.5914 7.45518C17.6009 7.62782 17.5187 7.76172 17.3443 7.81123C17.2569 7.83577 17.1613 7.84137 17.0696 7.84137C15.5896 7.84352 14.1093 7.84266 12.6293 7.84266C12.6078 7.84266 12.5867 7.84309 12.5652 7.84266C12.2724 7.8362 12.1096 7.70317 12.1113 7.47154C12.1131 7.2369 12.2685 7.11162 12.5699 7.11076C13.3278 7.10904 14.0856 7.11033 14.8434 7.11033C15.6013 7.11033 16.3307 7.1099 17.0743 7.11076C17.1458 7.11076 17.2181 7.10818 17.2883 7.1198C17.4756 7.1508 17.5811 7.27135 17.5914 7.45518Z" fill="#495057"/>
<path d="M9.89443 8.92631C9.90089 9.10886 9.78765 9.25481 9.59991 9.29355C9.53059 9.30776 9.45739 9.3069 9.38634 9.3069C8.6341 9.30776 7.8823 9.30733 7.13049 9.30733C6.37869 9.30733 5.6553 9.30819 4.9177 9.30604C4.83245 9.30604 4.74332 9.30389 4.66366 9.27892C4.49401 9.22596 4.40875 9.10068 4.4165 8.92158C4.42382 8.73989 4.52759 8.63011 4.6981 8.58878C4.77303 8.5707 4.85441 8.57586 4.93321 8.57586C6.41529 8.575 7.8978 8.575 9.38031 8.57543C9.44447 8.57543 9.50992 8.57242 9.57322 8.58146C9.7631 8.60729 9.88797 8.74377 9.89443 8.92631Z" fill="#495057"/>
<path d="M9.89457 11.8888C9.8851 12.0941 9.74128 12.2302 9.50618 12.2332C9.05493 12.2392 8.60367 12.2354 8.15242 12.2354C7.81613 12.2358 7.47941 12.2354 7.14269 12.2354C6.38356 12.2354 5.62444 12.2345 4.86531 12.2362C4.69911 12.2366 4.55098 12.2082 4.46056 12.0498C4.35033 11.8569 4.43472 11.6107 4.64743 11.5392C4.73958 11.5082 4.84421 11.5047 4.94325 11.5047C6.41844 11.5026 7.89363 11.503 9.36883 11.5035C9.4192 11.5035 9.46958 11.5009 9.5191 11.5052C9.75937 11.5263 9.90405 11.6752 9.89457 11.8888Z" fill="#495057"/>
<path d="M9.67042 6.33841C9.58645 6.37027 9.48828 6.37672 9.39657 6.37672C7.89984 6.37888 6.40312 6.37845 4.9064 6.37802C4.84913 6.37802 4.79143 6.37672 4.73546 6.36596C4.51844 6.32506 4.40261 6.18126 4.41725 5.97805C4.4306 5.78862 4.56236 5.65774 4.77378 5.65042C5.0528 5.64052 5.33225 5.64569 5.6117 5.64526C6.12712 5.64483 6.64296 5.64526 7.15837 5.64526C7.8964 5.64526 8.634 5.64483 9.37159 5.64569C9.44996 5.64569 9.53048 5.64353 9.60669 5.65817C9.77247 5.69003 9.87107 5.79465 9.89002 5.96385C9.91069 6.14166 9.8362 6.27512 9.67042 6.33841Z" fill="#495057"/>
<path d="M10.9986 7.48062C10.9943 7.69847 10.8272 7.84054 10.5529 7.8414C9.63062 7.84442 8.70787 7.84442 7.78512 7.8414C7.51084 7.84054 7.34592 7.69761 7.34377 7.47761C7.34162 7.25287 7.5018 7.11338 7.77737 7.11123C8.24241 7.10821 8.70744 7.11036 9.17204 7.11036C9.63665 7.11036 10.0879 7.10864 10.5456 7.11079C10.8367 7.11252 11.0025 7.25072 10.9986 7.48062Z" fill="#495057"/>
<path d="M14.6603 8.94657C14.6564 9.17087 14.4967 9.30563 14.2185 9.30649C13.2962 9.30864 12.3734 9.30864 11.4511 9.30649C11.1799 9.30563 11.0089 9.16097 11.0059 8.94355C11.0029 8.72614 11.1747 8.57803 11.4434 8.57631C11.908 8.5733 12.373 8.57545 12.8376 8.57545C13.3022 8.57545 13.753 8.57373 14.2108 8.57588C14.5044 8.57717 14.6646 8.71236 14.6603 8.94657Z" fill="#495057"/>
<path d="M10.9983 10.403C11 10.6243 10.8338 10.7681 10.5621 10.7702C10.0975 10.7732 9.63244 10.7711 9.1674 10.7711C8.70237 10.7711 8.25198 10.7724 7.79426 10.7702C7.50491 10.7689 7.3387 10.6286 7.34387 10.3974C7.3486 10.1765 7.51309 10.0405 7.78909 10.04C8.71184 10.0383 9.63416 10.0379 10.5569 10.04C10.829 10.0405 10.9965 10.183 10.9983 10.403Z" fill="#495057"/>
<path d="M14.6608 11.8676C14.6629 12.0958 14.5066 12.2327 14.2293 12.2344C13.7643 12.2374 13.2997 12.2353 12.8347 12.2353C12.3696 12.2353 11.9192 12.237 11.4615 12.2349C11.1752 12.2336 11.0008 12.0889 11.006 11.8646C11.0111 11.6476 11.1812 11.5051 11.4542 11.5043C12.3765 11.5017 13.2993 11.5017 14.2216 11.5043C14.4985 11.5051 14.6586 11.6442 14.6608 11.8676Z" fill="#495057"/>
<path d="M14.3311 6.36724C14.2613 6.3793 14.189 6.37801 14.1175 6.37801C13.4307 6.37887 12.7443 6.37844 12.058 6.37844C11.872 6.37844 11.686 6.3793 11.4999 6.37801C11.4431 6.37715 11.3854 6.37542 11.3294 6.36466C11.1301 6.32634 11 6.17609 11.0061 5.99742C11.0129 5.80583 11.1581 5.65429 11.3712 5.65084C11.8573 5.64266 12.3435 5.64826 12.83 5.64826V5.6474C13.3162 5.6474 13.8027 5.64223 14.2889 5.64955C14.5123 5.653 14.6484 5.78947 14.6583 5.98666C14.6682 6.18728 14.5485 6.33022 14.3311 6.36724Z" fill="#495057"/>
<path d="M6.60231 10.4039C6.6036 10.6084 6.44256 10.7625 6.20488 10.769C6.1123 10.7716 6.02015 10.7724 5.92758 10.7724C5.78376 10.7724 5.63995 10.7703 5.49613 10.7707C5.42594 10.7707 5.35576 10.7711 5.286 10.7716C5.12669 10.7724 4.96737 10.7737 4.80848 10.7694C4.56434 10.7625 4.41492 10.62 4.41406 10.4069C4.41363 10.1938 4.56262 10.0448 4.80547 10.0414C5.27093 10.0354 5.7364 10.0354 6.20186 10.0414C6.44041 10.0444 6.60145 10.1994 6.60231 10.4039Z" fill="#495057"/>
<path d="M17.2433 6.36769C16.7502 6.38362 16.2555 6.38362 15.762 6.36855C15.5321 6.36166 15.4008 6.19461 15.4107 5.98882C15.4202 5.78475 15.5631 5.6543 15.8008 5.64741C16.0368 5.64096 16.2731 5.64612 16.5095 5.64612V5.64741C16.7459 5.64741 16.9823 5.64096 17.2183 5.64914C17.4383 5.65645 17.5804 5.79078 17.5938 5.98495C17.6071 6.18428 17.4697 6.3608 17.2433 6.36769Z" fill="#495057"/>
<path d="M6.60102 7.47241C6.60231 7.68337 6.43869 7.83319 6.18292 7.84094C5.95428 7.84783 5.72477 7.84266 5.4957 7.84266C5.26663 7.84266 5.05134 7.84783 4.82958 7.84094C4.56908 7.83362 4.41493 7.69284 4.41407 7.47542C4.4132 7.25327 4.56434 7.11421 4.82657 7.11163C5.27782 7.10732 5.72908 7.10732 6.17991 7.11163C6.4374 7.11421 6.60016 7.2593 6.60102 7.47241Z" fill="#495057"/>
<path d="M17.5952 11.8793C17.5905 12.0876 17.435 12.2284 17.1909 12.234C17.0286 12.2375 16.8662 12.2366 16.7039 12.2357C16.6303 12.2353 16.5562 12.2344 16.4822 12.2344C16.4223 12.2344 16.362 12.2349 16.3022 12.2357C16.1329 12.2362 15.9637 12.2379 15.7949 12.2332C15.5607 12.2263 15.4173 12.0902 15.4104 11.8849C15.4031 11.6713 15.5478 11.5124 15.7898 11.5073C16.2621 11.4974 16.7349 11.4982 17.2073 11.5069C17.4475 11.5112 17.6004 11.6717 17.5952 11.8793Z" fill="#495057"/>
<path d="M17.5957 8.93273C17.6 9.13938 17.4445 9.29997 17.2064 9.30427C16.7341 9.31159 16.2613 9.31245 15.7889 9.30341C15.5491 9.29911 15.4027 9.13981 15.4104 8.92584C15.4173 8.72134 15.5624 8.584 15.7954 8.57754C15.8854 8.57453 15.9754 8.5741 16.0654 8.5741H16.0839C16.2243 8.5741 16.3642 8.57582 16.5046 8.57539C16.6419 8.57539 16.7793 8.5741 16.9171 8.5741C17.0084 8.5741 17.1001 8.57453 17.1918 8.57668C17.4351 8.58228 17.5914 8.72435 17.5957 8.93273Z" fill="#495057"/>
<path d="M12.4607 20.6488C12.4663 20.849 12.3621 20.9725 12.1722 21.0186C12.0968 21.0367 12.0159 21.0354 11.938 21.0354C10.3357 21.0362 8.73352 21.0362 7.13131 21.0354C7.05294 21.0354 6.97199 21.0358 6.8975 21.0173C6.70718 20.9695 6.60556 20.8438 6.61374 20.644C6.62106 20.4636 6.75239 20.3306 6.94314 20.3095C7.02107 20.3009 7.1003 20.3043 7.1791 20.3039H9.53958C10.3336 20.3039 11.1276 20.3039 11.9216 20.3043C11.9931 20.3043 12.065 20.3013 12.1356 20.3099C12.325 20.3328 12.4555 20.4679 12.4607 20.6488Z" fill="#495057"/>
<path d="M5.57395 21.0147C5.28331 21.0371 4.98836 21.0396 4.69857 21.0125C4.50653 20.9949 4.40792 20.8442 4.41654 20.644C4.42429 20.4619 4.55217 20.3267 4.74464 20.3107C4.87942 20.2991 5.01634 20.3082 5.15198 20.3082V20.3069C5.2734 20.3069 5.39569 20.2996 5.51669 20.3086C5.7182 20.3232 5.8547 20.4619 5.86546 20.6491C5.87537 20.8252 5.76083 21 5.57395 21.0147Z" fill="#495057"/>
</g>
<defs>
<clipPath id="clip0_1_6788">
<rect width="22" height="22" fill="white" transform="translate(0 0.5)"/>
</clipPath>
</defs>
</svg>
