<svg width="22" height="27" viewBox="0 0 22 27" fill="none" xmlns="http://www.w3.org/2000/svg">
<g clip-path="url(#clip0_1_6810)">
<path d="M21.6968 25.5225C21.6428 24.9196 21.1888 24.4935 20.5711 24.4725C20.1743 24.4585 19.7761 24.4693 19.3786 24.4674C19.2968 24.4668 19.2156 24.4598 19.1195 24.4553C19.1195 23.8334 19.1201 23.2419 19.1195 22.6498C19.1188 22.1048 18.8792 21.713 18.3596 21.4898C18.292 21.4605 18.2245 21.3658 18.2115 21.292C17.9484 19.793 17.6925 18.2921 17.4379 16.7918C17.3846 16.4796 17.3944 16.4694 17.7373 16.4077C17.9328 16.3721 18.0316 16.2646 18.0731 16.0744C18.1043 15.9352 18.1608 15.7959 18.2316 15.6712C18.3109 15.5313 18.4245 15.4111 18.5141 15.2769C19.2078 14.2422 19.5514 13.0917 19.6573 11.8694C19.7437 10.8785 19.6359 9.91627 19.2137 8.99347C18.9078 8.32442 18.4109 8.02678 17.6678 8.03569C16.2941 8.05286 14.9198 8.04078 13.546 8.04078H13.2531C13.2531 7.84044 13.3051 7.65792 13.2427 7.52818C13.0972 7.22355 13.2265 7.04356 13.4538 6.87439C13.5019 6.83878 13.5337 6.77582 13.585 6.75356C13.6681 6.71731 13.7708 6.6677 13.8494 6.68678C14.3332 6.8038 14.7327 6.67279 15.0782 6.33445C16.3786 5.05868 17.675 3.77973 18.9844 2.51287C19.7229 1.79803 19.3351 0.739763 18.5284 0.545154C18.507 0.540067 18.4901 0.515899 18.4713 0.5H18.0049C17.8029 0.610024 17.5639 0.682525 17.4054 0.83516C16.0447 2.14782 14.697 3.47256 13.3499 4.79793C13.0771 5.06631 12.9297 5.4231 13.0511 5.77288C13.1615 6.09024 13.0245 6.23969 12.8296 6.4114C12.7777 6.45656 12.7387 6.52143 12.6802 6.55068C12.6153 6.58375 12.5224 6.61873 12.4633 6.59711C11.9963 6.42412 11.6033 6.52461 11.2604 6.86931C10.9337 7.1962 10.5947 7.51037 10.2751 7.84299C10.1329 7.99117 9.98412 8.04586 9.77692 8.04523C8.08365 8.0376 6.38972 8.04459 4.6958 8.03887C4.10474 8.03632 3.62605 8.22712 3.33767 8.7518C3.02785 9.31527 2.81611 9.92136 2.77065 10.5573C2.6362 12.4589 3.04214 14.2206 4.25738 15.7577C4.31388 15.8296 4.33922 15.9364 4.34766 16.0299C4.36714 16.2461 4.47042 16.3702 4.6919 16.4083C5.02055 16.4656 5.03744 16.4853 4.98418 16.7982C4.73217 18.2819 4.47431 19.765 4.2262 21.25C4.20217 21.3918 4.1541 21.4656 4.01316 21.5222C3.63579 21.6736 3.38898 21.9572 3.33442 22.3534C3.29285 22.653 3.3013 22.9614 3.31169 23.2654C3.31948 23.5033 3.49615 23.6667 3.70399 23.6489C3.93652 23.6292 4.06187 23.4906 4.07421 23.2661C4.08461 23.0632 4.07551 22.8597 4.08201 22.6568C4.09305 22.3153 4.2275 22.1836 4.57759 22.1836C9.00206 22.1824 13.4265 22.1824 17.8516 22.1836C18.1978 22.1836 18.3355 22.3178 18.3394 22.6632C18.3459 23.2133 18.3414 23.7628 18.3401 24.3129C18.3401 24.3599 18.3258 24.407 18.316 24.4681H2.12503C2.01267 24.4681 1.89965 24.4655 1.78793 24.4751C1.28521 24.5177 0.857835 24.8624 0.751964 25.333C0.711695 25.5123 0.712994 25.7025 0.711045 25.8882C0.707148 26.4027 0.807173 26.4987 1.32613 26.4987H21.1076C21.1765 26.4987 21.246 26.5025 21.3148 26.4962C21.5428 26.4765 21.689 26.3594 21.7026 26.1305C21.7143 25.9283 21.7149 25.7235 21.6968 25.5225ZM13.9598 5.27619C15.2705 3.9877 16.5845 2.70302 17.8991 1.41771C18.0283 1.29116 18.1894 1.19957 18.3628 1.30451C18.4745 1.37256 18.5492 1.49976 18.6551 1.61678C18.5668 1.7586 18.52 1.88134 18.4343 1.96593C17.1307 3.24933 15.8239 4.52955 14.5138 5.80723C14.3066 6.00947 14.0858 6.02028 13.9176 5.85938C13.7526 5.70165 13.7597 5.47334 13.9598 5.27619ZM11.8709 7.3641C11.9417 7.30686 12.1295 7.28524 12.1827 7.33293C12.312 7.44868 12.4315 7.60577 12.4737 7.76603C12.4906 7.82836 12.297 8.01279 12.1853 8.02551C11.8761 8.0624 11.5592 8.03823 11.2455 8.03823C11.2377 8.01534 11.2292 7.99244 11.2214 7.96891C11.4358 7.76476 11.6404 7.54917 11.8709 7.3641ZM3.58838 12.1931C3.47926 11.3644 3.46497 10.5408 3.74881 9.73629C3.7631 9.69622 3.77739 9.65616 3.79168 9.61609C4.06317 8.86182 4.14826 8.80268 4.96729 8.80268H11.2156C13.3674 8.80268 15.5193 8.81094 17.6704 8.79568C18.1056 8.79314 18.344 8.95404 18.5193 9.34135C19.039 10.4925 18.9701 11.6671 18.7148 12.8494C18.5012 13.8422 18.064 14.7363 17.3593 15.49C17.2781 15.5765 17.1313 15.6502 17.0144 15.6509C13.1427 15.6591 9.2716 15.6585 5.39987 15.6509C5.2901 15.6509 5.14981 15.5847 5.07511 15.504C4.20542 14.5634 3.75206 13.4389 3.58838 12.1931ZM16.2181 16.4319C16.0967 16.5113 16.0343 16.559 15.9661 16.5966C15.2283 16.9947 14.4372 17.2332 13.5961 17.2434C12.0067 17.2618 10.4173 17.2643 8.82799 17.2427C7.90828 17.23 7.05157 16.9597 6.27866 16.4319H16.2181ZM4.98678 21.4109C5.23229 19.9692 5.47586 18.5401 5.72202 17.0945C6.03379 17.2459 6.31957 17.3985 6.6164 17.5276C7.40166 17.8698 8.23044 18.0123 9.08519 18.0142C10.5018 18.0173 11.9184 18.0173 13.3349 18.0142C14.4722 18.0116 15.5394 17.7509 16.5189 17.174C16.5682 17.1448 16.6241 17.1244 16.7001 17.0901C16.9469 18.5395 17.1904 19.9685 17.436 21.4109H4.98678ZM1.52164 25.7279C1.48007 25.3998 1.61062 25.2446 1.93343 25.23C1.97694 25.228 2.01981 25.23 2.06333 25.23H20.3607C20.7952 25.23 20.918 25.3362 20.916 25.7286H1.52164V25.7279Z" fill="#495057"/>
<path d="M12.362 20.1014C12.2016 19.3872 11.8229 18.7729 11.4157 18.177C11.2994 18.0065 11.0734 18.0288 10.9649 18.2253C10.6636 18.7735 10.3525 19.3211 10.1147 19.8966C9.93092 20.3425 10.0952 20.766 10.4642 21.084C10.8201 21.3899 11.2345 21.4592 11.6697 21.2672C12.1198 21.0681 12.3419 20.7062 12.3724 20.2185C12.3698 20.1847 12.3711 20.1421 12.362 20.1014ZM11.4975 20.6617C11.3046 20.7896 11.1098 20.7864 10.9188 20.6573C10.7155 20.5193 10.6142 20.2687 10.7097 20.0308C10.8441 19.6944 11.0104 19.3701 11.163 19.0406C11.1942 19.0381 11.2247 19.0355 11.2559 19.033C11.4112 19.3682 11.5807 19.697 11.7158 20.0391C11.8106 20.277 11.7054 20.5244 11.4975 20.6617Z" fill="#495057"/>
</g>
<defs>
<clipPath id="clip0_1_6810">
<rect width="21" height="26" fill="white" transform="translate(0.710938 0.5)"/>
</clipPath>
</defs>
</svg>
