<svg xmlns="http://www.w3.org/2000/svg" width="24" height="24" viewBox="0 0 24 24" fill="none"><g clip-path="url(#clip0_240_52520)"><path d="M23.4806 20.4693C23.3668 19.1514 23.2529 17.8335 23.1444 16.521C23.1335 16.3637 23.1173 16.2064 23.1173 16.0492V1.31904C23.1119 1.1021 23.0197 0.944819 22.8081 0.868891C22.5966 0.792963 22.4231 0.868891 22.2983 1.04244C21.9892 1.48174 21.6692 1.91562 21.3926 2.37661C20.6604 3.58062 20.1235 4.87683 19.7927 6.24896C19.7764 6.30862 19.7547 6.3737 19.7222 6.4659C17.8728 4.18263 15.5082 2.89184 12.5903 2.73998C9.67252 2.59355 7.18315 3.61859 5.08969 5.71746V1.4709C5.08969 1.39497 5.09512 1.31904 5.08969 1.24853C5.05173 1.0099 4.86733 0.841774 4.65039 0.841774C4.43345 0.841774 4.24363 1.0099 4.20567 1.24311C4.19482 1.32446 4.20025 1.40581 4.20025 1.48717V6.65572H3.29995V1.36785C3.29995 1.05329 3.12098 0.847197 2.86065 0.841774C2.5949 0.841774 2.40508 1.04787 2.40508 1.36785V6.6503H1.51021V1.37327C1.49394 1.04787 1.31497 0.841774 1.04922 0.841774C0.783466 0.847197 0.604492 1.05329 0.604492 1.38412V7.10045C0.609916 7.77838 0.875665 8.34242 1.3692 8.80884C1.43971 8.87392 1.49936 8.99324 1.49936 9.08543C1.50479 11.4555 1.51563 13.8255 1.49394 16.1956C1.49394 16.9006 1.36378 17.6057 1.30954 18.3162C1.21734 19.4931 1.12514 20.6699 1.06549 21.8468C1.01125 22.8448 1.58614 23.5606 2.56236 23.7722C2.58406 23.7776 2.60575 23.7939 2.62202 23.8047H3.07217C3.48977 23.7017 3.88026 23.5444 4.17313 23.2081C4.57446 22.758 4.67209 22.2265 4.6287 21.6462C4.54192 20.5127 4.47142 19.3792 4.39007 18.2023C6.49979 20.8001 9.18983 22.1343 12.5144 21.9878C15.8444 21.8414 18.4043 20.2578 20.2862 17.4701C20.2862 17.584 20.2917 17.6599 20.2862 17.7359C20.1886 19.0483 20.0964 20.3608 19.9934 21.6679C19.9337 22.3892 20.1127 23.0129 20.7201 23.4413C20.9587 23.6095 21.2679 23.6854 21.5499 23.8047H21.9946C22.4773 23.6908 22.9329 23.501 23.204 23.0671C23.3613 22.8122 23.4481 22.5139 23.5674 22.2319V21.516C23.5349 21.1689 23.5078 20.8218 23.4806 20.4693ZM2.8498 22.9044C2.31831 22.9044 1.91697 22.4705 1.96036 21.9119C2.07967 20.2957 2.21526 18.685 2.33458 17.0688C2.37796 16.4668 2.37796 15.8593 2.39966 15.2573V14.9699H3.27826C3.28368 15.0295 3.29453 15.0892 3.29453 15.1434C3.25114 16.5373 3.45181 17.9148 3.54401 19.3032C3.59824 20.171 3.67959 21.0442 3.73925 21.9119C3.77722 22.4705 3.37588 22.9044 2.8498 22.9044ZM2.40508 14.0533V13.1856H3.28368V14.0533H2.40508ZM3.64705 8.18514C3.37046 8.35869 3.28368 8.58105 3.2891 8.90104C3.30538 9.93692 3.2891 10.9782 3.2891 12.0141V12.2636H2.39423V12.0304C2.39423 10.9511 2.38881 9.87726 2.39966 8.79799C2.39966 8.55394 2.31831 8.36954 2.10679 8.23937C1.86273 8.08209 1.68376 7.87058 1.59156 7.57229H4.09178C4.01043 7.83804 3.86399 8.04955 3.64163 8.18514H3.64705ZM20.4272 14.1347C20.5357 14.9428 20.232 15.6478 19.874 16.3312C18.6538 18.6307 16.7989 20.1656 14.277 20.8218C11.7931 21.4672 9.44473 21.0659 7.28619 19.6666C5.97914 18.8205 4.98122 17.687 4.2816 16.2932C4.22736 16.1847 4.19482 16.0546 4.19482 15.9353C4.1894 13.6628 4.19482 11.3904 4.1894 9.11798C4.1894 8.97696 4.22194 8.88477 4.33041 8.78714C4.78598 8.39123 5.01919 7.88143 5.08427 7.28485C5.09512 7.18722 5.13308 7.07875 5.19274 7.00283C6.70588 5.09919 8.66375 3.92772 11.0772 3.68909C14.6404 3.34199 17.4443 4.71955 19.4564 7.68076C19.5052 7.75126 19.5269 7.85973 19.5269 7.95193C19.5324 8.58648 19.5324 9.22102 19.5324 9.85557C19.5324 10.4901 19.5324 11.0975 19.5269 11.7212C19.5269 11.9219 19.5866 12.0846 19.733 12.2202C19.7493 12.231 19.7656 12.2473 19.7818 12.2636C19.9934 12.4859 20.2862 12.6703 20.4001 12.9361C20.5032 13.191 20.4272 13.5218 20.4272 13.8201C20.4272 13.9286 20.4164 14.0316 20.4272 14.1347ZM20.4164 10.9728C20.4598 10.2244 20.4544 9.46508 20.4218 8.71122C20.3784 7.71872 20.5466 6.76419 20.834 5.82593C21.154 4.76294 21.5987 3.75417 22.2116 2.81591V12.2744C21.8428 12.2744 21.4685 12.2799 21.0997 12.269C21.0347 12.269 20.975 12.1714 20.9099 12.1226C20.5086 11.8406 20.3893 11.4663 20.4164 10.9728ZM22.2061 13.191V14.0587H21.333V13.191H22.2061ZM21.7614 22.9044C21.2408 22.899 20.8448 22.4705 20.8828 21.9282C20.9859 20.4964 21.1106 19.0646 21.2082 17.6382C21.2733 16.7596 21.3113 15.881 21.3655 14.9753H22.2061C22.2116 15.0295 22.2224 15.0838 22.2224 15.1326C22.179 16.5373 22.3743 17.9311 22.4719 19.3304C22.5261 20.1981 22.6075 21.0604 22.6617 21.9228C22.6997 22.476 22.2875 22.9098 21.7614 22.9044Z" fill="#495057"></path><path d="M12.0791 6.08762C8.62978 6.09305 5.80415 8.92409 5.80958 12.3734C5.80958 15.8227 8.64062 18.6484 12.0899 18.6484C15.5393 18.6429 18.3649 15.8119 18.3595 12.3626C18.354 8.90782 15.5284 6.0822 12.0791 6.08762ZM12.0845 17.7481C9.12874 17.7481 6.70987 15.3346 6.70445 12.3734C6.69903 9.4122 9.13416 6.97707 12.0954 6.98792C15.0566 6.99876 17.47 9.41763 17.4646 12.3734C17.4592 15.3292 15.0403 17.7481 12.0845 17.7481Z" fill="#495057"></path><path d="M16.5641 12.4915C16.4556 14.2161 15.6583 15.5069 14.1452 16.3421C13.8903 16.4831 13.6245 16.4289 13.4998 16.2174C13.3642 15.9896 13.4293 15.7293 13.6842 15.5829C14.1615 15.3117 14.5953 14.9863 14.9316 14.547C15.3872 13.945 15.6258 13.2616 15.6638 12.5132C15.6638 12.4915 15.6692 12.4698 15.6692 12.4427C15.6909 12.1118 15.8698 11.9112 16.1302 11.922C16.4068 11.922 16.5803 12.1552 16.5641 12.4915Z" fill="#495057"></path><path d="M12.5822 16.4276C12.5713 16.6717 12.3544 16.8615 12.1158 16.8452C11.8771 16.829 11.6927 16.6174 11.709 16.3734C11.7253 16.1293 11.9368 15.9395 12.1754 15.9558C12.4195 15.9775 12.5985 16.1836 12.5822 16.4276Z" fill="#495057"></path></g><defs><clipPath id="clip0_240_52520"><rect width="22.9629" height="22.9629" fill="white" transform="translate(0.604492 0.841522)"></rect></clipPath></defs></svg>