<svg width="20" height="23" viewBox="0 0 20 23" fill="none" xmlns="http://www.w3.org/2000/svg">
<g clip-path="url(#clip0_1_6772)">
<path d="M19.0857 16.7921C18.3933 16.9948 17.7256 17.1906 17.0409 17.3911C16.6106 15.8868 16.1854 14.3994 15.7547 12.8924C15.8882 12.8529 16.0083 12.8175 16.1284 12.782C16.6805 12.6193 17.1807 12.3612 17.5665 11.9204C18.3969 10.971 18.5663 9.89715 18.0967 8.72739C17.0413 6.09884 15.9788 3.47348 14.9104 0.850382C14.8557 0.716319 14.7213 0.61634 14.6241 0.5H14.4125C14.3417 0.528176 14.2727 0.562714 14.2006 0.584074C12.7316 1.01626 11.2617 1.44708 9.79273 1.87835C9.44901 1.97924 9.3661 2.11376 9.42615 2.45732C9.91686 5.25993 10.4098 8.06253 10.8956 10.866C11.1927 12.583 12.7289 13.6409 14.4076 13.2705C14.6263 13.2224 14.8419 13.1601 15.0731 13.1006C15.5015 14.598 15.9272 16.0859 16.3583 17.5906C15.6736 17.7937 15.0005 17.9932 14.3113 18.1977C14.3807 18.4381 14.443 18.6553 14.5098 18.8876C16.1105 18.4168 17.696 17.95 19.2887 17.4815C19.2156 17.2334 19.152 17.018 19.0857 16.7921ZM10.1606 2.52367C11.5454 2.11603 12.9216 1.71111 14.3269 1.29756C14.949 2.83497 15.5669 4.3642 16.1925 5.91025H10.7535C10.5572 4.78821 10.3614 3.67071 10.1606 2.52367ZM13.8291 12.6098C12.6783 12.687 11.804 11.9076 11.5857 10.6883C11.3531 9.38725 11.1295 8.08389 10.9028 6.78143C10.8969 6.74689 10.8978 6.71053 10.8933 6.64419H11.0995C12.8293 6.64419 14.5586 6.646 16.288 6.641C16.435 6.64055 16.5107 6.67872 16.5676 6.8246C16.8558 7.56218 17.1614 8.29248 17.4518 9.02869C17.899 10.1625 17.5136 11.31 16.4641 11.8708C16.1199 12.0544 15.7265 12.1508 15.3469 12.2562C14.8459 12.3948 14.3408 12.5752 13.8291 12.6098Z" fill="#495057"/>
<path d="M7.08232 0.5H6.4043V1.58159H7.08232V0.5Z" fill="#495057"/>
<path d="M8.4218 5.14316C6.90039 4.83504 5.37942 4.5251 3.85845 4.21517C3.50084 4.142 3.37402 4.21517 3.26288 4.57282C2.95905 5.54762 2.65521 6.52242 2.35272 7.49721C1.8181 9.22231 1.28258 10.9474 0.749745 12.6734C0.274274 14.214 0.88777 15.6519 2.3339 16.3281C2.66776 16.484 3.04285 16.5485 3.42152 16.6617C3.12306 18.1682 2.82281 19.6861 2.51853 21.2235C1.81137 21.0817 1.12438 20.944 0.427536 20.8045C0.378689 21.054 0.336117 21.2694 0.289062 21.508C1.91938 21.8397 3.53355 22.1678 5.16566 22.5C5.21361 22.2583 5.25842 22.0319 5.30503 21.7952C4.59832 21.6502 3.91626 21.5102 3.21628 21.3671C3.52056 19.831 3.82126 18.3123 4.12509 16.7776C4.26581 16.8048 4.38904 16.8266 4.51183 16.8526C5.86251 17.1407 7.09129 16.5903 7.75453 15.4015C8.04134 14.8871 8.09153 14.3176 8.14217 13.7459C8.26048 12.3985 8.38506 11.0515 8.50605 9.70448C8.6257 8.37885 8.74715 7.05322 8.86098 5.72667C8.89638 5.31494 8.81482 5.22268 8.4218 5.14316ZM7.62368 11.5896C7.54615 12.4444 7.46728 13.2992 7.38572 14.154C7.25531 15.5137 6.14707 16.3922 4.80805 16.1709C4.15467 16.0632 3.50308 15.9287 2.86404 15.7555C1.74371 15.4519 1.05985 14.284 1.36772 13.1479C1.68635 11.9699 2.07264 10.8115 2.43518 9.64632C2.45086 9.59633 2.5266 9.53134 2.5741 9.53134C4.3039 9.52725 6.03325 9.52998 7.7626 9.53225C7.76842 9.53225 7.7738 9.54043 7.80203 9.56133C7.74288 10.2362 7.68507 10.9133 7.62368 11.5896ZM7.87194 8.78513H2.70047C3.09483 7.51085 3.4865 6.24702 3.88534 4.95728C5.30189 5.24495 6.70859 5.5308 8.14038 5.82165C8.04985 6.82008 7.96202 7.79397 7.87194 8.78513Z" fill="#495057"/>
<path d="M13.3252 16.0032C12.5419 15.8923 12.0314 15.4538 11.7912 14.6903C11.7411 14.5317 11.7375 14.2994 11.6317 14.2331C11.504 14.1531 11.2907 14.2126 11.1141 14.2136C11.0868 14.2136 11.0594 14.2213 11.0124 14.2286C10.9895 14.7071 10.8309 15.1356 10.4943 15.4801C10.1538 15.8291 9.72758 15.995 9.25391 16.0191V16.7294C10.3321 16.8562 10.9093 17.467 11.0258 18.5313H11.711C11.8284 17.447 12.4204 16.8512 13.4861 16.7271V16.0205C13.4216 16.0136 13.3732 16.0096 13.3252 16.0032ZM11.3588 17.038C11.1733 16.8444 10.9021 16.5608 10.7296 16.3804C10.9062 16.1945 11.1769 15.91 11.3628 15.7146C11.5551 15.9164 11.8257 16.1995 12.001 16.3831C11.8293 16.5581 11.5587 16.8344 11.3588 17.038Z" fill="#495057"/>
<path d="M6.01672 1.9751H4.98242V2.67132H6.01672V1.9751Z" fill="#495057"/>
<path d="M8.50788 1.97656H7.47852V2.67006H8.50788V1.97656Z" fill="#495057"/>
<path d="M7.09267 3.05127H6.41016V4.09787H7.09267V3.05127Z" fill="#495057"/>
<path d="M12.7745 7.73218H12.0938V8.43567H12.7745V7.73218Z" fill="#495057"/>
<path d="M15.6233 8.46204H14.9336V9.15962H15.6233V8.46204Z" fill="#495057"/>
<path d="M14.1916 10.6174H13.5176V11.32H14.1916V10.6174Z" fill="#495057"/>
<path d="M4.27139 14.2035H3.57812V13.4932C3.77262 13.4932 3.97293 13.4869 4.17235 13.4991C4.20775 13.5014 4.26422 13.5787 4.26691 13.6241C4.27811 13.8077 4.27139 13.9927 4.27139 14.2035Z" fill="#495057"/>
<path d="M3.89748 10.9838H3.21094V11.6736H3.89748V10.9838Z" fill="#495057"/>
<path d="M6.73588 12.4203H6.06055V13.1165H6.73588V12.4203Z" fill="#495057"/>
</g>
<defs>
<clipPath id="clip0_1_6772">
<rect width="19" height="22" fill="white" transform="translate(0.289062 0.5)"/>
</clipPath>
</defs>
</svg>
