<svg xmlns="http://www.w3.org/2000/svg" width="26" height="19" viewBox="0 0 26 19" fill="none"><g clip-path="url(#clip0_240_52531)"><path d="M24.794 15.473H0.969285C0.767038 15.473 0.601562 15.3174 0.601562 15.1274V0.54611C0.601562 0.356025 0.767038 0.2005 0.969285 0.2005H24.794C24.9963 0.2005 25.1617 0.356025 25.1617 0.54611V15.1274C25.1617 15.3174 24.9963 15.473 24.794 15.473ZM1.33701 14.7818H24.4263V0.891719H1.33701V14.7818Z" fill="#495057"></path><path d="M23.5332 14.4625H2.231C2.02876 14.4625 1.86328 14.307 1.86328 14.1169V1.55404C1.86328 1.36396 2.02876 1.20844 2.231 1.20844H23.5332C23.7354 1.20844 23.9009 1.36396 23.9009 1.55404V14.1169C23.9009 14.307 23.7354 14.4625 23.5332 14.4625ZM2.59873 13.7713H23.1654V1.89965H2.59873V13.7713Z" fill="#495057"></path><path d="M18.6606 18.4177H6.18378C5.99624 18.4177 5.8418 18.2725 5.8418 18.0963C5.8418 17.92 5.99624 17.7748 6.18378 17.7748H18.6606C18.8481 17.7748 19.0026 17.92 19.0026 18.0963C19.0026 18.2725 18.8481 18.4177 18.6606 18.4177Z" fill="#495057"></path><path d="M16.9106 18.4442H7.93817C7.8205 18.4442 7.71019 18.3923 7.64032 18.3025C7.57045 18.2126 7.55206 18.0985 7.58884 17.9914L8.61478 15.0192C8.66259 14.8775 8.806 14.7807 8.96412 14.7807H15.8883C16.0465 14.7807 16.1899 14.8775 16.2377 15.0192L17.2636 17.9914C17.3004 18.0951 17.282 18.2126 17.2121 18.3025C17.1423 18.3923 17.032 18.4442 16.9143 18.4442H16.9106ZM8.44195 17.7529H16.4031L15.6162 15.4719H9.22888L8.44195 17.7529Z" fill="#495057"></path></g><defs><clipPath id="clip0_240_52531"><rect width="24.5602" height="18.2447" fill="white" transform="translate(0.601562 0.200623)"></rect></clipPath></defs></svg>